<svg xmlns="http://www.w3.org/2000/svg" width="21.438" height="20.492" viewBox="0 0 21.438 20.492">
  <g id="_7935ec95c421cee6d86eb22ecd125aef" data-name="7935ec95c421cee6d86eb22ecd125aef" transform="translate(-0.5 -11.78)">
    <path id="Path_305" data-name="Path 305" d="M5.367,32.272V18.445H.772V32.272h4.6ZM3.07,16.558A2.4,2.4,0,1,0,3.1,11.78a2.4,2.4,0,1,0-.06,4.778h.03ZM7.91,32.272s.06-12.529,0-13.826h4.6v2.005h-.031a4.577,4.577,0,0,1,4.172-2.33c3.024,0,5.291,1.976,5.291,6.223v7.928h-4.6v-7.4c0-1.859-.665-3.127-2.328-3.127a2.515,2.515,0,0,0-2.358,1.682,3.137,3.137,0,0,0-.151,1.121v7.721Z" fill="#fff" fill-rule="evenodd"/>
  </g>
</svg>
