<svg width="1920" height="1080" viewBox="0 0 1920 1080" fill="none" xmlns="http://www.w3.org/2000/svg">
<g clip-path="url(#clip0_27_7)">
<path d="M1920 0H0V1080H1920V0Z" fill="black"/>
<g filter="url(#filter0_f_27_7)">
<circle cx="927" cy="-36" r="691" fill="url(#paint0_linear_27_7)"/>
</g>
<g clip-path="url(#clip1_27_7)">
<path d="M423.726 531.592C423.726 546.151 420.385 559.516 413.702 571.688C407.019 583.621 396.757 593.287 382.914 600.686C369.071 608.085 351.887 611.784 331.362 611.784H293.414V702H232.196V450.684H331.362C351.41 450.684 368.355 454.145 382.198 461.066C396.041 467.987 406.423 477.534 413.344 489.706C420.265 501.878 423.726 515.84 423.726 531.592ZM326.708 563.096C338.403 563.096 347.114 560.351 352.842 554.862C358.57 549.373 361.434 541.616 361.434 531.592C361.434 521.568 358.57 513.811 352.842 508.322C347.114 502.833 338.403 500.088 326.708 500.088H293.414V563.096H326.708ZM546.528 704.864C526.958 704.864 509.296 700.687 493.544 692.334C478.031 683.981 465.74 672.047 456.67 656.534C447.84 641.021 443.424 622.882 443.424 602.118C443.424 581.593 447.959 563.573 457.028 548.06C466.098 532.308 478.508 520.255 494.26 511.902C510.012 503.549 527.674 499.372 547.244 499.372C566.815 499.372 584.476 503.549 600.228 511.902C615.98 520.255 628.391 532.308 637.46 548.06C646.53 563.573 651.064 581.593 651.064 602.118C651.064 622.643 646.41 640.782 637.102 656.534C628.033 672.047 615.503 683.981 599.512 692.334C583.76 700.687 566.099 704.864 546.528 704.864ZM546.528 651.88C558.223 651.88 568.128 647.584 576.242 638.992C584.596 630.4 588.772 618.109 588.772 602.118C588.772 586.127 584.715 573.836 576.6 565.244C568.724 556.652 558.939 552.356 547.244 552.356C535.311 552.356 525.406 556.652 517.53 565.244C509.654 573.597 505.716 585.889 505.716 602.118C505.716 618.109 509.535 630.4 517.172 638.992C525.048 647.584 534.834 651.88 546.528 651.88ZM671.37 601.76C671.37 581.235 675.188 563.215 682.826 547.702C690.702 532.189 701.322 520.255 714.688 511.902C728.053 503.549 742.97 499.372 759.438 499.372C772.564 499.372 784.498 502.117 795.238 507.606C806.216 513.095 814.808 520.494 821.014 529.802V437.08H882.232V702H821.014V673.36C815.286 682.907 807.052 690.544 796.312 696.272C785.81 702 773.519 704.864 759.438 704.864C742.97 704.864 728.053 700.687 714.688 692.334C701.322 683.742 690.702 671.689 682.826 656.176C675.188 640.424 671.37 622.285 671.37 601.76ZM821.014 602.118C821.014 586.843 816.718 574.791 808.126 565.96C799.772 557.129 789.51 552.714 777.338 552.714C765.166 552.714 754.784 557.129 746.192 565.96C737.838 574.552 733.662 586.485 733.662 601.76C733.662 617.035 737.838 629.207 746.192 638.276C754.784 647.107 765.166 651.522 777.338 651.522C789.51 651.522 799.772 647.107 808.126 638.276C816.718 629.445 821.014 617.393 821.014 602.118ZM914.348 602.118C914.348 581.354 918.525 563.215 926.878 547.702C935.47 532.189 947.284 520.255 962.32 511.902C977.595 503.549 995.018 499.372 1014.59 499.372C1039.65 499.372 1060.53 505.935 1077.24 519.062C1094.18 532.189 1105.28 550.685 1110.53 574.552H1045.38C1039.89 559.277 1029.27 551.64 1013.51 551.64C1002.3 551.64 993.347 556.055 986.664 564.886C979.982 573.478 976.64 585.889 976.64 602.118C976.64 618.347 979.982 630.877 986.664 639.708C993.347 648.3 1002.3 652.596 1013.51 652.596C1029.27 652.596 1039.89 644.959 1045.38 629.684H1110.53C1105.28 653.073 1094.18 671.451 1077.24 684.816C1060.29 698.181 1039.41 704.864 1014.59 704.864C995.018 704.864 977.595 700.687 962.32 692.334C947.284 683.981 935.47 672.047 926.878 656.534C918.525 641.021 914.348 622.882 914.348 602.118ZM1131.11 601.76C1131.11 581.235 1134.92 563.215 1142.56 547.702C1150.44 532.189 1161.06 520.255 1174.42 511.902C1187.79 503.549 1202.71 499.372 1219.17 499.372C1233.26 499.372 1245.55 502.236 1256.05 507.964C1266.79 513.692 1275.02 521.21 1280.75 530.518V502.236H1341.97V702H1280.75V673.718C1274.78 683.026 1266.43 690.544 1255.69 696.272C1245.19 702 1232.9 704.864 1218.82 704.864C1202.59 704.864 1187.79 700.687 1174.42 692.334C1161.06 683.742 1150.44 671.689 1142.56 656.176C1134.92 640.424 1131.11 622.285 1131.11 601.76ZM1280.75 602.118C1280.75 586.843 1276.45 574.791 1267.86 565.96C1259.51 557.129 1249.25 552.714 1237.07 552.714C1224.9 552.714 1214.52 557.129 1205.93 565.96C1197.57 574.552 1193.4 586.485 1193.4 601.76C1193.4 617.035 1197.57 629.207 1205.93 638.276C1214.52 647.107 1224.9 651.522 1237.07 651.522C1249.25 651.522 1259.51 647.107 1267.86 638.276C1276.45 629.445 1280.75 617.393 1280.75 602.118ZM1467.52 704.864C1450.1 704.864 1434.59 701.881 1420.98 695.914C1407.38 689.947 1396.64 681.833 1388.76 671.57C1380.89 661.069 1376.47 649.374 1375.52 636.486H1436.02C1436.73 643.407 1439.96 649.016 1445.68 653.312C1451.41 657.608 1458.45 659.756 1466.81 659.756C1474.44 659.756 1480.29 658.324 1484.35 655.46C1488.64 652.357 1490.79 648.419 1490.79 643.646C1490.79 637.918 1487.81 633.741 1481.84 631.116C1475.88 628.252 1466.21 625.149 1452.84 621.808C1438.52 618.467 1426.59 615.006 1417.04 611.426C1407.5 607.607 1399.26 601.76 1392.34 593.884C1385.42 585.769 1381.96 574.91 1381.96 561.306C1381.96 549.85 1385.06 539.468 1391.27 530.16C1397.71 520.613 1407.02 513.095 1419.19 507.606C1431.6 502.117 1446.28 499.372 1463.23 499.372C1488.29 499.372 1507.98 505.577 1522.3 517.988C1536.86 530.399 1545.21 546.867 1547.36 567.392H1490.79C1489.84 560.471 1486.74 554.981 1481.48 550.924C1476.47 546.867 1469.79 544.838 1461.44 544.838C1454.28 544.838 1448.79 546.27 1444.97 549.134C1441.15 551.759 1439.24 555.459 1439.24 560.232C1439.24 565.96 1442.22 570.256 1448.19 573.12C1454.4 575.984 1463.94 578.848 1476.83 581.712C1491.63 585.531 1503.68 589.349 1512.99 593.168C1522.3 596.748 1530.41 602.715 1537.33 611.068C1544.49 619.183 1548.19 630.161 1548.43 644.004C1548.43 655.699 1545.09 666.2 1538.41 675.508C1531.96 684.577 1522.54 691.737 1510.12 696.988C1497.95 702.239 1483.75 704.864 1467.52 704.864ZM1697.22 650.09V702H1666.08C1643.88 702 1626.58 696.63 1614.17 685.89C1601.75 674.911 1595.55 657.131 1595.55 632.548V553.072H1571.21V502.236H1595.55V453.548H1656.77V502.236H1696.86V553.072H1656.77V633.264C1656.77 639.231 1658.2 643.527 1661.06 646.152C1663.93 648.777 1668.7 650.09 1675.38 650.09H1697.22Z" fill="#5A3277"/>
</g>
<g filter="url(#filter1_f_27_7)">
<circle cx="960" cy="1582" r="691" fill="url(#paint1_linear_27_7)"/>
</g>
</g>
<defs>
<filter id="filter0_f_27_7" x="-142" y="-1105" width="2138" height="2138" filterUnits="userSpaceOnUse" color-interpolation-filters="sRGB">
<feFlood flood-opacity="0" result="BackgroundImageFix"/>
<feBlend mode="normal" in="SourceGraphic" in2="BackgroundImageFix" result="shape"/>
<feGaussianBlur stdDeviation="189" result="effect1_foregroundBlur_27_7"/>
</filter>
<filter id="filter1_f_27_7" x="-109" y="513" width="2138" height="2138" filterUnits="userSpaceOnUse" color-interpolation-filters="sRGB">
<feFlood flood-opacity="0" result="BackgroundImageFix"/>
<feBlend mode="normal" in="SourceGraphic" in2="BackgroundImageFix" result="shape"/>
<feGaussianBlur stdDeviation="189" result="effect1_foregroundBlur_27_7"/>
</filter>
<linearGradient id="paint0_linear_27_7" x1="890.5" y1="1.49996" x2="900.5" y2="839" gradientUnits="userSpaceOnUse">
<stop stop-color="#481655"/>
<stop offset="0.326362" stop-color="#23053E"/>
<stop offset="1" stop-color="#5A3277" stop-opacity="0"/>
</linearGradient>
<linearGradient id="paint1_linear_27_7" x1="923.5" y1="1619.5" x2="926.5" y2="2472" gradientUnits="userSpaceOnUse">
<stop stop-color="#481655"/>
<stop offset="1" stop-color="#5A3277" stop-opacity="0"/>
</linearGradient>
<clipPath id="clip0_27_7">
<rect width="1920" height="1080" fill="white"/>
</clipPath>
<clipPath id="clip1_27_7">
<rect width="1500" height="501" fill="white" transform="translate(210 290)"/>
</clipPath>
</defs>
</svg>
